HIERARCHY
ROOT Hips
{
  OFFSET 0 0 0
  CHANNELS 6 Xposition Yposition Zposition Zrotation Xrotation Yrotation
  JOINT Spine
  {
    OFFSET 0 10.1816 0.131521
    CHANNELS 3 Zrotation Xrotation Yrotation
    JOINT Spine1
    {
      OFFSET 0 10.0835 -1.0008
      CHANNELS 3 Zrotation Xrotation Yrotation
      JOINT Spine2
      {
        OFFSET 0 9.10001 -1.37342
        CHANNELS 3 Zrotation Xrotation Yrotation
        JOINT Neck
        {
          OFFSET 0 16.6717 -2.51617
          CHANNELS 3 Zrotation Xrotation Yrotation
          JOINT Head
          {
            OFFSET 0 9.61788 1.68501
            CHANNELS 3 Zrotation Xrotation Yrotation
            End Site
            {
              OFFSET 0 0 0
            }
          }
        }
        JOINT LeftShoulder
        {
          OFFSET 4.57045 10.946 -2.62799
          CHANNELS 3 Zrotation Xrotation Yrotation
          JOINT LeftArm
          {
            OFFSET 10.5924 -0.524583 -2.23212
            CHANNELS 3 Zrotation Xrotation Yrotation
            JOINT LeftForeArm
            {
              OFFSET 27.8415 -8.94286e-05 3.74589e-05
              CHANNELS 3 Zrotation Xrotation Yrotation
              JOINT LeftHand
              {
                OFFSET 28.3288 -1.74407e-05 3.78045e-05
                CHANNELS 3 Zrotation Xrotation Yrotation
                End Site
                {
                  OFFSET 0 0 0
                }
              }
            }
          }
        }
        JOINT RightShoulder
        {
          OFFSET -4.56997 10.9462 -2.62802
          CHANNELS 3 Zrotation Xrotation Yrotation
          JOINT RightArm
          {
            OFFSET -10.5928 -0.524798 -2.2321
            CHANNELS 3 Zrotation Xrotation Yrotation
            JOINT RightForeArm
            {
              OFFSET -27.8415 -3.30792e-05 1.16763e-05
              CHANNELS 3 Zrotation Xrotation Yrotation
              JOINT RightHand
              {
                OFFSET -28.3288 0 5.5816e-05
                CHANNELS 3 Zrotation Xrotation Yrotation
                End Site
                {
                  OFFSET 0 0 0
                }
              }
            }
          }
        }
      }
    }
  }
  JOINT LeftUpLeg
  {
    OFFSET 8.20778 -6.75171 -1.59956
    CHANNELS 3 Zrotation Xrotation Yrotation
    JOINT LeftLeg
    {
      OFFSET 0 -44.3705 0.284643
      CHANNELS 3 Zrotation Xrotation Yrotation
      JOINT LeftFoot
      {
        OFFSET 0 -44.4279 -2.98219
        CHANNELS 3 Zrotation Xrotation Yrotation
        JOINT LeftToeBase
        {
          OFFSET 0 -8.72867 10.7106
          CHANNELS 3 Zrotation Xrotation Yrotation
          End Site
          {
            OFFSET 0 0 0
          }
        }
      }
    }
  }
  JOINT RightUpLeg
  {
    OFFSET -8.2078 -6.75166 -1.59956
    CHANNELS 3 Zrotation Xrotation Yrotation
    JOINT RightLeg
    {
      OFFSET 0 -44.3705 0.286156
      CHANNELS 3 Zrotation Xrotation Yrotation
      JOINT RightFoot
      {
        OFFSET 0 -44.4277 -2.98379
        CHANNELS 3 Zrotation Xrotation Yrotation
        JOINT RightToeBase
        {
          OFFSET 0 -8.72867 10.7106
          CHANNELS 3 Zrotation Xrotation Yrotation
          End Site
          {
            OFFSET 0 0 0
          }
        }
      }
    }
  }
}
MOTION
Frames:	14
Frame Time:	0.0333333
119.72 122.833 -25.3107 -3.70239 6.14959 -4.5253 0.415093 4.58748 0.793767 -0.51093 9.02033 1.59982 -0.495398 9.03605 1.48128 4.39348e-005 -0.000479823 6.4272e-007 3.32517 -19.6079 8.18019 13.57 -1.07227 -3.05439 -27.6835 -1.90003 12.6089 -1.02302 -1.52118 -68.0586 30.7031 6.42828 -11.1107 -13.7896 -1.87434 7.45951 34.9961 -7.9608 -14.7514 0.642615 -1.66984 42.274 -16.7811 13.8379 2.54194 35.1309 -61.2014 29.0205 -80.8276 86.7824 79.2437 -14.211 20.8498 3.77712 0.362236 -3.22052 -0.187789 -11.103 -64.3106 -13.2444 18.2168 80.7904 -12.9236 8.15521 20.6073 -6.19549 -0.254879 -5.20592 0.247064 
119.934 118.966 -22.5413 -3.16822 4.44673 -4.78314 0.483577 3.85388 0.729736 -0.354342 7.5569 1.43741 -0.338827 7.57258 1.31927 4.39348e-005 -0.000479823 6.4272e-007 2.87693 -17.0984 8.06211 13.967 1.04616 -2.09087 -32.6795 2.89351 15.5269 -1.11203 -1.55532 -71.4945 31.6592 5.86873 -10.7319 -14.4245 -0.180665 6.56295 39.3951 -4.4401 -17.5985 0.716037 -1.74986 44.822 -17.132 12.1673 1.45134 20.953 -47.5042 16.9541 -9.52172 71.263 8.69189 -13.4591 19.7421 2.20534 0.391773 -3.56749 -0.206104 -6.60135 -49.0529 -7.51799 7.16129 61.7152 -1.40008 9.38942 25.3559 -5.34722 -0.381092 -6.99027 0.320213 
120.282 113.86 -19.6251 -2.52232 3.1391 -5.03583 0.605157 3.08342 0.635346 -0.0920495 6.02136 1.21282 -0.0765202 6.03697 1.09509 4.39348e-005 -0.000479823 6.4272e-007 2.21914 -14.5766 8.11019 12.4341 2.89246 -1.1715 -39.1449 7.30379 18.0865 -1.15065 -1.56914 -73.0642 32.2565 5.7711 -10.6734 -13.1186 1.34058 5.67707 43.0491 -2.92149 -19.2422 0.741776 -1.7728 45.5448 -16.0346 10.6671 0.181803 13.3442 -33.7878 10.386 -4.73387 51.595 4.4351 -14.6418 18.9559 1.44733 0.423164 -3.93714 -0.225349 -5.89091 -35.5277 -5.58859 5.18935 43.9545 0.961145 11.2691 28.6605 -6.38129 -0.495449 -8.62585 0.385434 
120.65 107.694 -17.4169 -2.51564 2.77739 -5.62958 0.897267 2.42759 0.609812 0.504218 4.71459 1.12643 0.519741 4.73018 1.00905 4.39348e-005 -0.000479823 6.4272e-007 1.56163 -14.0804 8.5221 8.54193 3.78725 -0.670886 -45.6497 10.6081 18.9197 -1.08455 -1.55254 -71.1542 31.4378 6.22695 -11.2882 -9.3773 1.88489 5.07733 44.9212 -3.9646 -18.7566 0.685508 -1.71612 43.7081 -13.0262 9.24515 -0.665066 9.58456 -24.4936 5.57109 -3.73376 38.5648 3.68216 -14.0327 11.6876 0.466894 7.24786 -10.3261 -0.37488 -5.30789 -27.6766 -4.52047 4.74496 35.287 1.62741 10.3369 24.0748 -7.55306 -3.56504 -14.0053 -0.031076 
120.868 101.242 -16.6272 -3.31409 2.58717 -6.83197 1.30457 2.29488 0.710447 1.31848 4.45268 1.30648 1.33395 4.46832 1.18917 4.39348e-005 -0.000479823 6.4272e-007 0.699703 -17.3937 9.20909 3.07545 3.47995 -1.35998 -50.5819 12.2012 15.7372 -0.909076 -1.4721 -63.7921 28.7551 6.7439 -11.9463 -3.95521 1.55146 5.69291 45.5383 -6.60637 -14.8143 0.550245 -1.56238 38.9876 -8.32345 7.88988 -0.90835 8.0771 -21.1495 3.5303 -3.81093 40.5624 4.60497 -5.07457 -11.469 -1.81396 3.59238 -13.7695 -1.02446 -4.00837 -27.5914 -3.50862 5.29061 42.7788 0.91675 5.5304 3.3318 -6.19363 -1.46736 -19.5478 0.699836 
120.969 96.037 -17.5435 -4.05443 2.38432 -8.1781 1.60548 2.72769 0.872454 1.90818 5.32045 1.62416 1.92358 5.33618 1.50663 4.39348e-005 -0.000479823 6.4272e-007 -0.421238 -23.8352 9.60672 -1.72514 1.78895 -4.16759 -54.111 13.1553 7.83659 -0.597112 -1.27265 -50.8542 23.7186 7.28719 -11.4025 0.923991 0.652809 8.62613 47.2446 -8.3137 -7.56359 0.372741 -1.31288 31.9273 -2.95327 8.19314 -0.906491 8.92627 -23.408 5.21327 -4.47038 49.7344 5.41343 -3.29755 -27.6982 -0.975462 -1.02159 -3.10832 -0.0678321 -2.57025 -30.6691 -3.06292 6.07864 52.8088 -0.0303617 1.08216 -13.4928 -6.49342 1.88553 -10.5473 0.859704 
121.145 93.696 -18.7151 -4.94948 2.10567 -9.6079 1.8789 3.24187 1.07746 2.43729 6.35159 2.02629 2.45261 6.36742 1.90849 4.39348e-005 -0.000479823 6.4272e-007 -1.22381 -28.4547 9.79494 -3.57689 -0.593806 -8.53678 -57.5753 16.108 -1.35084 -0.344805 -1.01696 -38.2963 15.8057 7.15342 -8.17317 2.62084 -0.793179 13.2327 51.2454 -5.74673 -0.133064 0.257439 -1.10619 26.4719 1.18125 10.1903 -1.40741 10.2739 -26.4235 5.8855 -5.20365 56.0574 5.95707 -3.29772 -31.1575 0.678156 -1.33298 -2.06718 0.0502381 -1.06688 -32.6831 -2.26091 6.57272 57.0591 -0.558525 -0.630646 -18.2383 -6.99719 3.05192 -6.67402 0.592487 
121.37 94.0734 -19.3487 -5.45739 2.3647 -11.2734 2.07745 3.30055 1.22553 2.8268 6.47242 2.31108 2.84204 6.48832 2.19325 4.39348e-005 -0.000479823 6.4272e-007 -1.35429 -29.6088 10.6376 -4.04799 -2.68308 -11.2243 -58.5253 22.4768 -8.64185 -0.281724 -0.931907 -34.6056 10.957 5.80827 -5.41238 2.7917 -2.54941 16.3108 54.485 1.33477 5.60583 0.270551 -1.13254 27.1517 1.47016 12.638 -0.661784 10.6375 -26.6356 6.3372 -5.15056 55.7226 6.12081 -1.69986 -30.627 2.49975 -2.65522 -1.81302 0.194541 -0.0556066 -32.8506 -1.06587 6.43336 55.691 -0.291191 -0.00279927 -16.7765 -6.31366 2.83564 -6.74376 0.562473 
121.512 96.2052 -19.5743 -5.48107 3.29771 -12.499 2.19454 2.93381 1.22079 3.06995 5.74216 2.29175 3.08518 5.75806 2.17412 4.39348e-005 -0.000479823 6.4272e-007 -1.19918 -29.2247 11.5874 -3.67843 -3.78972 -11.5865 -58.2675 27.7222 -12.8446 -0.388063 -1.07024 -40.7055 12.0818 7.45854 -5.93105 2.38002 -3.97482 16.9671 57.1118 7.72979 8.65841 0.42739 -1.39771 34.2571 -3.14259 16.3626 2.37686 10.5035 -24.7596 6.36585 -4.52361 49.9657 5.39266 -1.62697 -27.582 3.60432 -2.21665 -2.00665 0.154674 0.0673533 -31.6183 -0.764269 5.9088 50.1359 0.516166 1.55381 -11.839 -4.9616 1.51845 -8.68322 0.586897 
121.55 99.1212 -19.4329 -5.07983 4.37967 -12.9706 2.18731 2.37598 1.09881 3.07219 4.62729 2.04484 3.08746 4.64312 1.9275 4.39348e-005 -0.000479823 6.4272e-007 -0.566099 -27.8328 12.0297 -2.55286 -4.3189 -11.1404 -58.9119 29.5052 -14.1906 -0.598351 -1.27501 -50.969 15.0652 11.5659 -7.62161 1.33422 -4.61832 16.5128 59.4168 12.8592 9.87285 0.685294 -1.71715 43.7292 -10.0106 18.2509 6.03671 9.8462 -21.338 6.09075 -3.86811 40.6961 4.50087 -2.41357 -22.6652 3.92987 -0.771602 -2.47476 -0.0144852 -0.697795 -28.644 -1.58226 5.37037 41.4823 1.46222 3.3032 -5.63433 -3.45119 -0.217243 -10.7614 0.507315 
121.488 101.847 -19.044 -4.10496 5.67622 -13.0888 2.01247 1.65309 0.923787 2.74091 3.17929 1.69723 2.75624 3.19504 1.58027 4.39348e-005 -0.000479823 6.4272e-007 0.417195 -25.0249 12.2785 -1.31568 -4.59109 -10.5721 -59.0738 30.4738 -14.7805 -0.839518 -1.4379 -61.1442 16.9214 13.104 -8.15078 0.071397 -4.9048 15.8798 60.6737 17.9322 10.465 0.953673 -1.96025 52.0847 -14.7413 16.8489 7.92217 9.10941 -17.1476 6.67855 -3.41375 29.7233 3.65757 -4.69692 -17.4089 3.08776 0.938977 -1.75919 -0.166359 -1.8827 -24.7097 -2.61753 4.99525 31.3195 2.28438 4.14263 -0.326152 -2.02241 -1.67843 -10.7686 0.313662 
121.362 103.739 -18.6246 -3.08503 7.06444 -12.9607 1.79384 0.885419 0.738324 2.31897 1.64211 1.3258 2.33439 1.65775 1.20925 4.39348e-005 -0.000479823 6.4272e-007 1.16872 -21.4943 12.4405 -0.257417 -4.73504 -10.0449 -57.9597 31.1458 -16.0229 -1.06506 -1.54123 -69.8152 17.8734 12.3052 -7.67278 -1.18853 -5.2528 15.3469 61.3216 21.7462 10.4304 1.1911 -2.12435 58.7392 -14.8627 13.9308 7.44919 8.72609 -13.7406 7.81516 -3.21693 20.5823 3.04617 -8.15198 -13.7148 1.73855 1.36758 0.188152 -0.079877 -2.89319 -20.9058 -3.16645 4.63911 21.8025 3.00592 5.03563 3.25025 -0.719176 -2.60753 -8.92974 0.198028 
121.193 104.73 -18.3833 -2.64579 7.91074 -12.2595 1.64348 0.338476 0.570365 2.02637 0.548059 0.98667 2.04188 0.563611 0.870417 4.39348e-005 -0.000479823 6.4272e-007 1.55282 -18.7971 12.1596 0.282709 -4.99108 -9.785 -55.4815 31.0473 -18.2407 -1.25747 -1.59932 -76.8372 18.558 11.9412 -7.56288 -2.09565 -5.51273 14.8218 61.2229 23.5204 9.76007 1.40542 -2.24086 64.3651 -12.3165 10.3408 5.95719 8.66417 -11.5742 8.52161 -2.99839 14.773 2.65157 -10.4693 -11.3196 0.464442 0.0847327 -0.134622 -0.0125197 -3.49834 -17.8574 -3.60417 4.46445 15.3187 3.46987 6.34815 5.45089 0.331793 -2.43338 -6.70921 0.1128 
121.034 105.024 -18.3869 -2.51172 7.69113 -11.1183 1.49009 0.181112 0.471479 1.72115 0.232844 0.788528 1.73671 0.248343 0.672353 4.39348e-005 -0.000479823 6.4272e-007 1.77906 -17.7974 11.3103 -0.0736974 -5.44879 -9.7403 -51.9036 29.964 -21.2434 -1.40367 -1.62699 -82.0339 18.6811 12.0973 -8.16642 -2.30961 -5.29133 14.2109 59.7005 23.5006 9.1597 1.58609 -2.31922 68.9061 -10.5251 7.78939 5.225 8.31569 -10.2478 8.32403 -2.8786 12.2725 2.44219 -10.4106 -10.3797 -0.433803 0.10535 -0.369316 -0.0208231 -4.06431 -14.839 -4.88076 4.41552 11.4068 3.6877 6.48105 5.84868 1.69368 -1.98635 -5.59457 0.113424 
